<svg xmlns="http://www.w3.org/2000/svg" viewBox="0 0 1814.55 264.1"><defs><style>.cls-1{fill:#0a4b7f;}</style></defs><g id="Layer_2" data-name="Layer 2"><g id="Layer_1-2" data-name="Layer 1"><path class="cls-1" d="M700.42,128.26a7.79,7.79,0,0,0,.21-2.68q0-21.56,0-43.12V44.79a10.61,10.61,0,0,1,.63-3.59c1-2.85,3.15-4.23,5.82-5a28.71,28.71,0,0,1,6.66-1,151.68,151.68,0,0,1,17.84.13,19.27,19.27,0,0,1,6.13,1.36c3.25,1.33,4.73,3.9,5,7.28.09,1.08.07,2.17.07,3.26V197.06c0,1.31,0,2.62-.08,3.92a7.8,7.8,0,0,1-4.18,6.67,6.76,6.76,0,0,1-2.22.85c-2.51.35-4.93,1.15-7.51,1.08-4.43-.11-8.86,0-13.29,0a17.09,17.09,0,0,1-8.26-2.26,12.39,12.39,0,0,1-3.68-3.27,41.29,41.29,0,0,1-3.91-6.21c-2.08-3.88-4.12-7.77-6.22-11.63-3.18-5.88-6.41-11.73-9.6-17.6-1.34-2.46-2.62-5-4-7.42-2.45-4.56-4.92-9.11-7.37-13.66l-6.23-11.62-8.16-15.22c-.62-1.14-1.19-2.3-1.84-3.42a1.88,1.88,0,0,0-2.36-1.06,1.52,1.52,0,0,0-.72.7,2,2,0,0,0-.12.85c0,.73,0,1.45,0,2.18v75.78c0,1.52-.1,3.05,0,4.57.25,4.1-2.74,7.61-7.19,8.41-.85.15-1.69.38-2.55.51a18.94,18.94,0,0,1-2.8.34c-5.59,0-11.18,0-16.77,0a13.42,13.42,0,0,1-3.2-.5,31.54,31.54,0,0,1-4-.92,7.76,7.76,0,0,1-4.92-5.06,13,13,0,0,1-.65-4q0-76.65,0-153.3a14.16,14.16,0,0,1,.46-3.65c.88-3.23,3.13-5,6.17-5.81a28.2,28.2,0,0,1,6.22-1,136.31,136.31,0,0,1,17.85.08,17,17,0,0,1,9.76,3.82,17.31,17.31,0,0,1,4.09,5c1.65,3,3.22,6.15,4.78,9.25Q667.13,67,673.93,80.6l14.35,28.52,8.79,17.45c.07.13.11.27.18.4C698.1,128.5,698.2,128.54,700.42,128.26Z"/><path class="cls-1" d="M409.57,118.92c.55.24.85.39,1.17.5,2.2.73,4.44,1.36,6.6,2.19a26.71,26.71,0,0,1,12.08,8.94,30.21,30.21,0,0,1,4.3,8.23,46.68,46.68,0,0,1,1.77,6.91,75.31,75.31,0,0,1,1.45,14.67c0,2.18,0,4.36,0,6.54a26.65,26.65,0,0,1-.5,5.84,10.67,10.67,0,0,0-.21,1.95,12.9,12.9,0,0,1-.61,3.84c-.44,1.3-.52,2.69-.88,4a32.73,32.73,0,0,1-9.9,16.63,36,36,0,0,1-11.16,6.47c-2.08.79-4.19,1.47-6.3,2.16-1.43.46-3,.53-4.45.9-2.18.54-4.41.77-6.61,1.15a22.16,22.16,0,0,1-3.88.43,22.47,22.47,0,0,0-4.55.42,19.69,19.69,0,0,1-3.68.34q-18.84,0-37.68,0c-1.52,0-3-.24-4.56-.34-2.1-.14-4.19-.31-6.29-.36a35.09,35.09,0,0,1-6.72-.53,4.82,4.82,0,0,0-1.3-.16,30.4,30.4,0,0,1-7.95-1,13.24,13.24,0,0,1-3.05-1.1,6.32,6.32,0,0,1-3.34-5.27A41.15,41.15,0,0,1,313,197q0-74.06,0-148.1a43.37,43.37,0,0,1,.28-5.22c.31-2.52,1.15-4.82,3.51-6.2a8.88,8.88,0,0,1,2.76-1.2c2.14-.38,4.22-1.09,6.44-1a26,26,0,0,0,3-.27c2.17-.19,4.33-.4,6.5-.55,2.54-.18,5.07-.29,7.61-.44.79,0,1.59-.12,2.39-.13,8.49-.11,17-.22,25.48-.28,3.19,0,6.39.09,9.58.2,1.59,0,3.18.25,4.77.39.22,0,.43.07.65.07a84.39,84.39,0,0,1,10.15,1.08c.5.06,1,.17,1.5.28,2,.44,4,.79,5.9,1.34,7.52,2.12,14.36,5.36,19.33,11.72a31.61,31.61,0,0,1,4.44,7.91,46,46,0,0,1,1.79,6,48.14,48.14,0,0,1,1.41,11.82c0,3.84,0,7.69,0,11.54a21.33,21.33,0,0,1-.52,5.4,7.11,7.11,0,0,0-.17,1.73,6.73,6.73,0,0,1-.51,2.76,6.59,6.59,0,0,0-.34,1.25,28.35,28.35,0,0,1-8.74,16,15.25,15.25,0,0,1-2.64,1.88,28.18,28.18,0,0,1-7.42,3.4C410.06,118.46,410,118.6,409.57,118.92Zm-54,58.67c.81.07,1.52.16,2.23.2,1.81.1,3.62.15,5.43.27a96.86,96.86,0,0,0,19.11-.18,23.65,23.65,0,0,0,4-.91,8.19,8.19,0,0,0,5.33-4.74,18.42,18.42,0,0,0,1.54-5.85c.27-3.18.44-6.37.61-9.55a75.86,75.86,0,0,0-.61-11.07A15.5,15.5,0,0,0,391.4,140c-1.51-2.87-4.29-4-7.16-4.81a23.62,23.62,0,0,0-5.8-.77c-7.25-.09-14.51-.06-21.76-.06a5.66,5.66,0,0,0-1.17.25C355.23,136.91,355.27,175.67,355.59,177.59Zm0-72.32a3.84,3.84,0,0,0,.82.16c5.65,0,11.31,0,17-.1a21.21,21.21,0,0,0,6.62-1.17A9.26,9.26,0,0,0,386.25,98a31.77,31.77,0,0,0,1.36-8.76c.05-2.25.09-4.5,0-6.75A25.41,25.41,0,0,0,386.08,74a7.7,7.7,0,0,0-4.29-4.36c-1.37-.57-2.76-1.29-4.36-1.09a3.32,3.32,0,0,1-1.07-.17,29.26,29.26,0,0,0-9.1-.32,87.63,87.63,0,0,1-10,.59,12.53,12.53,0,0,0-1.69.2,4.33,4.33,0,0,0-.22.93q0,17.42,0,34.81A2.37,2.37,0,0,0,355.61,105.27Z"/><path class="cls-1" d="M196.11,186.32c.09-.63.21-1.15.23-1.67,0-.92,0-1.85,0-2.77V3.87c0-1.15,0-2.3.07-3.53a8.62,8.62,0,0,1,1.3-.31c.58,0,1.16,0,1.74,0H230c.86,0,1.73,0,2.67,0a14.49,14.49,0,0,1,.25,1.43c0,.61,0,1.23,0,1.84V215.47c0,.69,0,1.38,0,2.07-.06,1.13-.38,1.44-1.5,1.52-.58,0-1.16,0-1.74,0H198.93l-108,0c-1.73,0-3.49.2-5.13-.69a1.66,1.66,0,0,0-.64-.12A26.68,26.68,0,0,1,79,216.83a46,46,0,0,1-19.25-12.58,46.84,46.84,0,0,1-6.19-8.19c-1.17-2.08-2.29-4.18-3.29-6.34a34.61,34.61,0,0,1-2.67-7.7c-.43-2.14-1.31-4.24-1-6.52a1.72,1.72,0,0,0-.12-.9c-.88-2-.63-4.06-.64-6.12,0-1.76-.19-3.55.65-5.19a.59.59,0,0,0,0-.23,24.82,24.82,0,0,1,.95-6.3c.15-.58.22-1.2.4-1.77a76.85,76.85,0,0,1,3.44-8.83,46,46,0,0,1,6.36-10A65,65,0,0,1,63,130.51a46.09,46.09,0,0,1,8.38-6,84.39,84.39,0,0,1,8.72-3.86c1.73-.14,3.32-.9,5-1.2,4.49-.78,9-.38,13.47-.4,1.09,0,2.17,0,3.26,0h75.37a18.26,18.26,0,0,1,2,0c.71.08,1.4.28,2.18.44.06.72.15,1.32.15,1.92q0,13.61,0,27.21c0,2.25-.29,2.56-2.33,2.62-.66,0-1.31,0-2,0H93.39c-.58,0-1.16,0-1.74,0a9.35,9.35,0,0,0-4.59,1.16,20.92,20.92,0,0,0-4.4,2.87,16.86,16.86,0,0,0-4.41,6.14,17.23,17.23,0,0,0-1.41,5.71,13.12,13.12,0,0,0,.43,5.93,27.55,27.55,0,0,0,.92,3.26,22.13,22.13,0,0,0,3.53,5.41,16.15,16.15,0,0,0,5.41,3.68,15,15,0,0,0,6.15,1.05q50,0,100,0A10.61,10.61,0,0,0,196.11,186.32Z"/><path class="cls-1" d="M.35,218.78a9.37,9.37,0,0,1-.2-1.08c0-.69,0-1.38,0-2.08q0-106.18,0-212.37A10,10,0,0,1,.34.19C.79.13,1.2,0,1.62,0c.65,0,1.3,0,2,0H147.13a2.51,2.51,0,0,1,.87.06c3.5,1.33,7.19,2,10.57,3.82a64.21,64.21,0,0,1,9,5.71,61,61,0,0,1,5.4,5.28c.52.52,1,1.14,1.51,1.64a25.33,25.33,0,0,1,3.85,5.22,45.24,45.24,0,0,1,3.81,7.14A43.77,43.77,0,0,1,185,37.24a23,23,0,0,1,.68,4.28,1.71,1.71,0,0,0,.12.68c.81,1.73.67,3.59.68,5.43,0,1.69,0,3.38,0,5.07a9.07,9.07,0,0,1-.58,4.06,2.67,2.67,0,0,0-.22,1.12c0,2.74-.9,5.26-1.62,7.8a37.66,37.66,0,0,1-2.64,6.45,52.51,52.51,0,0,1-8.47,12.63c-1.22,1.3-2.54,2.49-3.86,3.67a48.32,48.32,0,0,1-9.58,6.51,52.72,52.72,0,0,1-6.91,3,29.86,29.86,0,0,1-4,.9,2.71,2.71,0,0,0-.64.15c-1.78.9-3.68.72-5.56.72H55c-.8,0-1.6,0-2.4,0a1.86,1.86,0,0,1-1.86-1.83,14.37,14.37,0,0,1,0-1.61c0-8.53,0-17.07,0-25.6,0-2.56.33-3,2.86-3q18.84.06,37.69,0l44.65-.12c.87,0,1.75,0,2.62,0a15.55,15.55,0,0,0,10.14-3.26,16.17,16.17,0,0,0,5.3-6.51c.55-1.24.78-2.58,1.38-3.78a3.17,3.17,0,0,0,.2-1.35c0-2,.12-4,0-6a11,11,0,0,0-.92-3.73,19.64,19.64,0,0,0-3.45-5.73,18.6,18.6,0,0,0-7.37-4.57,16,16,0,0,0-5.34-.68H39.5a6.15,6.15,0,0,0-3.26.39,6.09,6.09,0,0,0-.1.87l0,181.94a22,22,0,0,1-.07,2.3,1.54,1.54,0,0,1-1.52,1.62c-.51.05-1,0-1.53,0H2.78A4.71,4.71,0,0,1,.35,218.78Z"/><path class="cls-1" d="M499.82,168.24a30.62,30.62,0,0,0-1.14,4.76c-.06.36,0,.73-.13,1.08-.43,1.83-.9,3.64-1.34,5.47-.1.42-.13.86-.21,1.28-.13.71-.28,1.42-.42,2.12s-.27,1.27-.38,1.91a9.19,9.19,0,0,1-.14,1.07c-1,2.95-1.15,6.12-2.08,9.09.13,1.71-.63,3.26-1.05,4.85-.85,3.21-2.3,6.12-5.58,7.59a16.6,16.6,0,0,1-3.26,1.14,44.36,44.36,0,0,1-10.79,1c-3.56-.11-7.12,0-10.67,0a17.26,17.26,0,0,1-4.74-.59c-1.38-.4-2.84-.47-4.22-1a7.37,7.37,0,0,1-4.21-3.84,2.29,2.29,0,0,1-.19-.83,53.1,53.1,0,0,1,0-8.27,7.82,7.82,0,0,1,.37-1.46,11.28,11.28,0,0,0,.35-1.69,8.89,8.89,0,0,1,.54-2.32,30.92,30.92,0,0,0,.83-3.35c.34-1.55.65-3.11,1-4.66.11-.49.24-1,.37-1.47s.34-1.24.49-1.87.24-1.13.4-1.68c.47-1.59.73-3.22,1.22-4.81s.7-3.38,1.08-5.06c.47-2,1-4.07,1.48-6.1a33.28,33.28,0,0,0,1.2-4.82c.17-1.82,1-3.45,1.21-5.26.16-1.33.62-2.65.9-4,.42-2.05,1-4.08,1.47-6.11.4-1.6.85-3.2,1.25-4.8.11-.42.1-.87.19-1.29s.27-1.12.43-1.67c.06-.2.22-.38.27-.59.33-1.55.64-3.1,1-4.64.27-1.27.52-2.55.83-3.81.38-1.54.85-3.06,1.21-4.61s.72-3.37,1.09-5.06c.11-.49.27-1,.41-1.45a7.67,7.67,0,0,0,.41-1.45,11.31,11.31,0,0,1,.54-2.3c.49-1.65.8-3.36,1.18-5,.33-1.48.7-2.95,1-4.43.4-2,.9-3.94,1.44-5.87.46-1.66.48-3.44,1.25-5a5.27,5.27,0,0,0,.23-1.28c.12-.56.27-1.12.41-1.67s.32-1.25.47-1.88l1.05-4.65c.14-.63.26-1.27.4-1.9s.24-1,.37-1.47.33-1.24.49-1.86.29-1.12.43-1.68.24-1.12.37-1.68.25-1.12.38-1.68.28-1.12.42-1.67l.48-1.88c.12-.41.28-.82.37-1.24.34-1.62.66-3.25,1-4.88.16-.77.33-1.55.5-2.32.08-.35.15-.71.25-1,.46-1.59.91-3.18,1.4-4.75,1.27-4.13,3-7.94,6.56-10.71a17.24,17.24,0,0,1,6.2-3.07A50.74,50.74,0,0,1,508,35.33c9.87-.43,19.75-.46,29.61.07A39.54,39.54,0,0,1,550,37.77a15.75,15.75,0,0,1,8.66,7.84,42.43,42.43,0,0,1,3.22,9.44c.68,2.81,1.33,5.63,2,8.45s1.37,5.93,2.08,8.88c.4,1.69.88,3.36,1.28,5.06.61,2.53,1.16,5.08,1.76,7.62.7,3,1.43,5.91,2.14,8.87.65,2.75,1.29,5.5,1.94,8.25.71,3,1.43,5.92,2.13,8.88.89,3.73,1.75,7.47,2.65,11.2,1,4.23,2.06,8.44,3.07,12.67.57,2.4,1.09,4.81,1.66,7.2,1,4.37,2.13,8.73,3.16,13.1,1.14,4.8,2.21,9.61,3.35,14.4,1,4.16,2,8.31,3,12.47.85,3.59,1.77,7.18,2.42,10.81a50.23,50.23,0,0,1,.61,7.15,18.5,18.5,0,0,1-.38,3.45,5.32,5.32,0,0,1-2.53,3.62,9.81,9.81,0,0,1-3.6,1.46,41.82,41.82,0,0,1-9.92,1c-3.7-.13-7.41,0-11.11,0a16.43,16.43,0,0,1-5.17-.61c-1.23-.41-2.54-.4-3.81-.79a10.16,10.16,0,0,1-6.85-6.91c-.81-2.32-1.16-4.75-1.75-7.12-.45-1.81-.4-3.74-1.29-5.46-.31-.61,0-1.51-.31-2.13-.83-1.74-.45-3.75-1.37-5.44.15-1.58-.72-2.93-1-4.42s-.48-2.85-.77-4.27c-.22-1.13-.51-2.25-.79-3.37a1,1,0,0,0-.91-.82,12.79,12.79,0,0,0-1.52-.08h-40.3C501.19,168.13,500.61,168.19,499.82,168.24Zm20.54-98.53c-.59,2.54-1.18,4.92-1.68,7.32-.62,3-1.16,6-1.74,8.94-.09.42-.27.82-.39,1.24s-.26,1-.36,1.48c-.37,1.84-.69,3.69-1.08,5.52s-.84,3.67-1.25,5.51c-.27,1.2-.54,2.4-.76,3.6-.35,1.85-.66,3.7-1,5.54-.06.29-.21.55-.28.83-.16.7-.31,1.41-.45,2.11-.11.5-.19,1-.3,1.49-.4,1.83-.83,3.66-1.21,5.5s-.78,3.83-1.16,5.74c-.25,1.2-.42,2.42-.76,3.6a10.52,10.52,0,0,0-.52,2.54,3.71,3.71,0,0,1-.33,1.47,13,13,0,0,0-.68,4.21,3.76,3.76,0,0,0,2.41.35q13.17,0,26.35,0a12.86,12.86,0,0,0,1.52,0,4.58,4.58,0,0,0,1-.34,12.29,12.29,0,0,1-.37-1.8,8.5,8.5,0,0,0-.63-3.18,5.19,5.19,0,0,1-.22-1.27c-.12-.71-.22-1.43-.37-2.13-.38-1.69-.82-3.37-1.15-5.07s-.59-3.56-.87-5.34a1.43,1.43,0,0,0-.1-.42c-.93-1.69-.37-3.76-1.42-5.41a17.36,17.36,0,0,0-.75-4c-.46-1.66-.58-3.41-.88-5.12a15,15,0,0,0-.37-1.47c-.13-.49-.32-1-.4-1.46-.31-1.78-.59-3.56-.88-5.34a1.18,1.18,0,0,0-.1-.42,6.78,6.78,0,0,1-.66-3.16,2.18,2.18,0,0,0-.27-1,4.89,4.89,0,0,1-.58-2.51,3.67,3.67,0,0,0-.22-1.28c-.78-1.75-.65-3.68-1.18-5.49s-.81-4-1.2-5.94c-.17-.92-.38-1.84-.5-2.76-.22-1.64-.7-2.08-2.42-2.09C521.62,69.6,521.12,69.66,520.36,69.71Z"/><path class="cls-1" d="M810.05,136.39a4.84,4.84,0,0,0-.42,2.73c0,5.15,0,10.3,0,15.46q0,21.12,0,42.25c0,1.38-.07,2.76-.19,4.13-.35,4.18-2.81,6.71-7.32,7.69-.84.19-1.69.38-2.55.52a17.69,17.69,0,0,1-2.8.34c-5.59,0-11.18.05-16.77,0a14.1,14.1,0,0,1-3.21-.49,28.3,28.3,0,0,1-4.22-1,7.69,7.69,0,0,1-4.92-5.55,20.71,20.71,0,0,1-.51-4.95V110.21q0-31.35,0-62.72a21.33,21.33,0,0,1,.58-5.38A7.59,7.59,0,0,1,771.94,37a16.51,16.51,0,0,1,6.28-1.6,145.44,145.44,0,0,1,20.24,0,20.23,20.23,0,0,1,6.14,1.35,7.29,7.29,0,0,1,4.76,6.24,34.75,34.75,0,0,1,.25,4.56q0,29.29,0,58.59a8.61,8.61,0,0,0,.26,3,11.45,11.45,0,0,0,5-.13c1.44-3.26,2.82-6.42,4.23-9.57,1.17-2.63,2.37-5.24,3.54-7.87,1.75-3.94,3.41-7.92,5.27-11.82s3.54-8,5.45-12c1.53-3.18,2.67-6.53,4.19-9.71s2.84-6.29,4.29-9.43c1-2.08,1.84-4.19,3-6.18a12.79,12.79,0,0,1,8.85-6.34,50.45,50.45,0,0,1,9.08-.9,143.29,143.29,0,0,1,15.23.07,39,39,0,0,1,6,1,9.69,9.69,0,0,1,1.64.58c2.93,1.2,4.45,3,4.18,7.07a16.49,16.49,0,0,1-1,4.22,78.6,78.6,0,0,1-4.73,10.26q-13,25.35-26,50.72c-2,3.87-3.91,7.77-6,11.61a2.58,2.58,0,0,0,.09,2.82q7.06,12.49,14.08,25,10.66,19,21.32,37.95,2,3.62,3.74,7.38a29.17,29.17,0,0,1,1.4,4.33,8.47,8.47,0,0,1-.22,4.52,6.81,6.81,0,0,1-4,4.33,15.29,15.29,0,0,1-5.8,1.63,5,5,0,0,0-1.28.21,17.42,17.42,0,0,1-5.61.64H863.42a15.46,15.46,0,0,1-4.73-.58c-1.31-.41-2.69-.44-4-.88a13,13,0,0,1-6.33-4.27,23.45,23.45,0,0,1-2.75-4.39c-1.85-3.82-3.75-7.61-5.62-11.41-1.26-2.59-2.5-5.2-3.76-7.79-2.08-4.27-4.18-8.53-6.26-12.81-1.79-3.67-3.46-7.41-5.37-11-2.51-4.77-4.76-9.66-7.15-14.49-.7-1.42-1.48-2.82-2.1-4.27a2.1,2.1,0,0,0-2-1.42A10,10,0,0,0,810.05,136.39Z"/><path class="cls-1" d="M.42,263.94C0,261.86-.15,234.05.15,226.2a10.79,10.79,0,0,1,.21-1.38,10.36,10.36,0,0,1,1.33-.19c7.1-.28,228.92-.1,230.86.18.57.72.34,1.6.34,2.42,0,5.53,0,11.07,0,16.6v19.88a7.46,7.46,0,0,1-1.33.36c-.65.06-1.31,0-2,0H3.33A12.64,12.64,0,0,1,.42,263.94ZM88.93,251c-.82.56-1.65,1.12-2.46,1.7a2.25,2.25,0,0,1-2.64.06,3.64,3.64,0,0,1-2-3.49c.08-3.29,0-6.59,0-9.88a5.43,5.43,0,0,1,.21-1.08l.7-.21c.28-.08.61-.2.52-.56a.76.76,0,0,0-.57-.49c-1.58,0-3.17,0-4.76,0-.2,0-.39.3-.62.49l1.85,1.64v2.43c0,2.83,0,5.67,0,8.51a2.73,2.73,0,0,0,.81,2,6.37,6.37,0,0,0,5.92,2,5.62,5.62,0,0,0,2.25-1.18,1.84,1.84,0,0,0,.71-2c.65-.25.81-.73.8-1.44-.06-2.77,0-5.53-.07-8.3a3.31,3.31,0,0,1,1.14-2.81c.3-.26.79-.51.42-1.24-.85,0-1.77-.07-2.69-.09a2.43,2.43,0,0,0-.85.06c-.16.06-.25.31-.52.66.22.14.41.24.59.36A2.92,2.92,0,0,1,89,240.86v1.38C89,245.16,88.94,248.08,88.93,251ZM49.5,239.45c.06.43.15.81.17,1.19.07,1.22.25,2.47-.76,3.43a.46.46,0,0,0,0,.41c.15.14.4.31.54.25,2.47-.9,3.07-1.93,2.8-4.59a2.06,2.06,0,0,0-.81-1.54,11.26,11.26,0,0,0-4-1.58c-2.1,0-4.21,0-6.31,0-.29,0-.58.26-.91.42.19.25.26.43.37.47,1.33.43,1.72,1.41,1.69,2.81-.06,2.84,0,5.69,0,8.53a14.09,14.09,0,0,1-.07,2.06,9.77,9.77,0,0,1-.64,1.76,4.42,4.42,0,0,0,3.7-.13,20,20,0,0,1-.18-7,1.44,1.44,0,0,1,2.15,0A4.17,4.17,0,0,1,48.79,249a7.56,7.56,0,0,0,.66,3.32c.85,1.91,1.27,2.18,3.32,1.59a1.1,1.1,0,0,0,0-.44,15.51,15.51,0,0,1-1.46-4.22,3.39,3.39,0,0,0-1.53-2.65c-1.29-.6-2.27-1.94-3.9-1.79-.53,0-.91-.44-.92-1.07,0-1.46,0-2.92,0-4.38,0-.87.4-1.14,1.28-1.24A3.35,3.35,0,0,1,49.5,239.45Zm-30.73,5.68c.25-.31.45-.78.79-.95.93-.45,1.34-1.36,1.9-2.14a2.1,2.1,0,0,0,.1-2.36A6.21,6.21,0,0,0,17.2,237c-2.53,0-5.07,0-7.6.05-.22,0-.43.27-.9.58l1.26.41c.92.27,1.1.46,1.16,1.35,0,.54,0,1.07,0,1.61v7.37a17.48,17.48,0,0,1,0,2.29,21.19,21.19,0,0,1-.58,2.43A4.11,4.11,0,0,0,14,253c0-1.27-.13-2.41-.14-3.56s0-2.28.08-3.5a4.34,4.34,0,0,1,4.61.52,4,4,0,0,1,1.33,4.27c-.37.93-1.51,1.19-1.75,2.18a1.34,1.34,0,0,0,1.68.36,5.15,5.15,0,0,0,1.93-1.38,3.59,3.59,0,0,0,1-2,3.7,3.7,0,0,0-2.22-3.56A2.6,2.6,0,0,1,18.77,245.13Zm147.06,8a18,18,0,0,1-.65-2.37,19.41,19.41,0,0,1,0-2.53V241.5c0-.54,0-1.07,0-1.61a1.7,1.7,0,0,1,1.25-1.68,4.94,4.94,0,0,1,2.78.08,4.54,4.54,0,0,1,2.76,3.52,23.25,23.25,0,0,1,.15,6.87,4.34,4.34,0,0,1-2.34,3.58c-.26.14-.54.26-.4.81a1.64,1.64,0,0,0,2.24-.32,6.54,6.54,0,0,1,.8-.78,6.5,6.5,0,0,0,2.34-5.39,23.6,23.6,0,0,0-.16-4.13,5.66,5.66,0,0,0-1.78-3.32,7.84,7.84,0,0,0-4.2-2.07c-2.38-.17-4.78,0-7.17,0-.12,0-.24.14-.39.24-.19,1.09,1.09.52,1.2,1,.63,1.79.33,3.42.38,5s0,3.38,0,5.07-.07,3.16-.1,4.79A5.16,5.16,0,0,0,165.83,253.09Zm-29.58.77c0-.21.1-.4,0-.5a19,19,0,0,1-1.55-5.16,2.26,2.26,0,0,0-1.05-1.61c-1.42-.49-2.42-1.94-4.12-1.83-.85.05-1.24-.57-1.29-1.54s0-1.69,0-2.53a2.48,2.48,0,0,1,1-2.4c2.16-.77,3.34.38,4.39,2v2.39c-.41.67-1.19,1-1.22,1.94.28.08.61.3.8.2a5.68,5.68,0,0,0,2.85-2.26,2.64,2.64,0,0,0,.07-2.43,5.92,5.92,0,0,0-4.7-3.07c-2.25-.1-4.5,0-6.74,0-.14,0-.27.11-.45.19,0,.2,0,.58.05.6,1.43.32,1.45,1.46,1.44,2.66,0,3.3,0,6.6,0,9.9,0,.9-.09,1.79-.13,2.65,2,.51,2.18.5,3.42-.22-1.13-1.79-.68-3.81-.66-5.77a1.48,1.48,0,0,1,1.61-1.5,1.67,1.67,0,0,1,1.76,1.1,11,11,0,0,1,1.08,3.69,12.72,12.72,0,0,0,0,1.38,3.13,3.13,0,0,0,1.45,2.19A1.57,1.57,0,0,0,136.25,253.86Zm-61.6-10.15v-3.06a2.38,2.38,0,0,0-.9-2,6.35,6.35,0,0,0-3.49-1.6c-2.3-.14-4.62,0-6.94,0-.22,0-.44.25-.74.42l2.22,1.57v10.45a6.4,6.4,0,0,1-.67,3.55,4.68,4.68,0,0,0,3.47,0,46.55,46.55,0,0,1,0-5.13c.16-1.62-.11-3.2,0-4.79s-.29-3.34.31-5.1h2a2.05,2.05,0,0,1,2,1.5c.42,1.75.85,3.64-.82,5.08a2.92,2.92,0,0,0-.44.78C72.58,246.55,73.3,244.67,74.65,243.71Zm-44.1,9.44c-1.07-2.62-1.23-5,0-7.32a9.11,9.11,0,0,1-.71-2.14,33.63,33.63,0,0,1,0-4.14,1.36,1.36,0,0,1,1.36-1.47,3.1,3.1,0,0,1,3.25,1.29c.21.3.46.57.66.81.18,2.84.18,2.84-1.45,4.76-.07.09,0,.28,0,.45.33.59.89.48,1.34.34a5,5,0,0,0,2.92-4.37,3.05,3.05,0,0,0-.44-1.49A19.81,19.81,0,0,0,35.83,238c-1.16-.06-2-1.16-3.25-1-1.79.18-3.61.07-5.42.09-.48,0-1.13-.3-1.37.28-.36.84.56.63.86.94a1.82,1.82,0,0,1,.45.75,4.75,4.75,0,0,1,.11,1.14c0,2.14,0,4.29,0,6.44s-.07,4.26-.11,6.51A5.27,5.27,0,0,0,30.55,253.15Zm63.33-12.24c.82-.84,1.52-1.46,2.12-2.18a1.56,1.56,0,0,1,2.1-.42,3.91,3.91,0,0,1,.33,2.27c0,3.76,0,7.52,0,11.28,0,.44.07.88.11,1.34a3.91,3.91,0,0,0,3.07-.24,7.2,7.2,0,0,1-.46-1.29,10.79,10.79,0,0,1-.06-1.61v-10.6a2.49,2.49,0,0,1,.22-.4,3.14,3.14,0,0,1,.31-.32c1-.9,1.62-.85,2.59,0a3.81,3.81,0,0,1,1.44,2.7c0,.29.2.65.54.51a1,1,0,0,0,.45-.68c.06-.37.12-.91-.07-1.11-.75-.82-.51-2.06-1.15-3-.58,0-1.14-.14-1.71-.15-2.47,0-4.93,0-7.39,0s-2.73.59-2.7,3A3.94,3.94,0,0,0,93.88,240.91ZM113.36,253c-.73-2.37-.42-4.7-.35-7,1.62-1.07,2.47.36,3.6,1.09a5.06,5.06,0,0,0-.06-3.91,3,3,0,0,1-2.47,1.55,1,1,0,0,1-1.14-1.08c0-1.38,0-2.76,0-4.14a8,8,0,0,1,.3-1.43c.92,0,1.78,0,2.64-.06a3.48,3.48,0,0,1,3.41,1.5c.14.19.44.25.69.39.35-1.58.35-1.82,0-2.32s-1-.5-1.58-.56-.87,0-1.3,0l-7.82,0a1.21,1.21,0,0,0-.62.15c-.14.09-.2.32-.36.58l1.64.59a4.68,4.68,0,0,1,.33,2.33c0,2.68,0,5.37,0,8.05,0,1.43.16,2.89-.6,4.28A4.57,4.57,0,0,0,113.36,253Zm79.55-15.92c.14.39.16.77.33.87a3.5,3.5,0,0,1,1.56,2.37,1.7,1.7,0,0,0,.31.84c.85.83,1.42,1.91,2.17,2.78,1.89,2.21,3.42,4.69,5.16,7,.54.71,1.06,1.44,1.64,2.11a.62.62,0,0,0,1-.35c0-1.15.07-2.3,0-3.44a1.22,1.22,0,0,0-.6-.87,5.07,5.07,0,0,1-1.8-1.88c-1.54-2.09-2.74-4.47-4.58-6.33a2.23,2.23,0,0,1-.32-.59,6.44,6.44,0,0,0-2.17-2.52Zm-40.42,15.94c-.39-1.11-.74-2-1-2.93a42.62,42.62,0,0,1-1.79-5.32c-.83-.85-.87-2.1-1.24-3.14s-1.15-1.95-1.13-3.2a1.24,1.24,0,0,0-1.26-1.23c-.44,1-.84,1.91-1.2,2.72a16.24,16.24,0,0,1,1.33,3.2c.29,1.49,1.28,2.78,1.07,4.4a.92.92,0,0,0,.29.58,5.66,5.66,0,0,1,1.3,4.67c0,.12.14.25.3.52A7.77,7.77,0,0,0,152.49,253.06Zm66,.17a5.85,5.85,0,0,0,3.43-.16,8.12,8.12,0,0,0-.22-1.15c-.5-1.41-1-2.81-1.54-4.23-.79-2.26-1.56-4.53-2.35-6.79a15.43,15.43,0,0,1-.91-2.79,1,1,0,0,0-1.51-.89c-.25.91-.52,1.85-.8,2.87.37.92.8,1.88,1.16,2.87a21.81,21.81,0,0,1,1.06,3.42,5.47,5.47,0,0,0,.87,2.5,4.42,4.42,0,0,1,.82,3.24A9.54,9.54,0,0,0,218.54,253.23Zm-28.69-.14a2.14,2.14,0,0,0,.05-.61c-.2-.88-.82-1.57-.85-2.56s-.82-1.52-1-2.49a26.05,26.05,0,0,0-1.06-3.2c-.53-2-1.69-3.71-2-5.79a1.38,1.38,0,0,0-1.48-1.34c-.25.66-.45,1.3-.74,1.9a2,2,0,0,0,0,1.9,22.94,22.94,0,0,1,2.14,6.41,2.79,2.79,0,0,0,.53,1.21,5.45,5.45,0,0,1,.95,3.89,2.52,2.52,0,0,0,.11.62A4.35,4.35,0,0,0,189.85,253.09ZM121,253c.05-1.17.44-2.42-.53-3.81a4.92,4.92,0,0,1-2.42,3.27c-.1,0-.07.4-.11.6A3.79,3.79,0,0,0,121,253Zm82.31-15.67c.24,1.26.25,1.32.83,1.65a1.34,1.34,0,0,0,.8.17,2.32,2.32,0,0,0,1.61-1.38c.08-.14,0-.41-.09-.73-1,.05-2,.09-3,.15C203.4,237.19,203.35,237.28,203.3,237.33Zm-62.75,14c-.56.54-1.2.88-1.1,1.88a2.67,2.67,0,0,0,2.3-.14C141.74,252.19,141.17,251.8,140.55,251.32Zm69.71.1c-.5.56-1.33.7-1.29,1.64a2.39,2.39,0,0,0,1.9.27.68.68,0,0,0,.47-.37.77.77,0,0,0-.09-.61A12.94,12.94,0,0,0,210.26,251.42Zm-33.34,1.36c0,.07,0,.17.06.22.67.65,1.43.41,2.17.19.09,0,.19-.22.21-.35.09-.46-.74-1.26-1.35-1.22-.31.28-.68.61-1,.95C176.93,252.61,176.93,252.71,176.92,252.78Zm19.57.14-1.7-1.7c-.19.8-1.16.93-.82,1.94A2.66,2.66,0,0,0,196.49,252.92Z"/><path class="cls-1" d="M1691.74,161.47a7,7,0,0,0,.17-2.52q0-21.33,0-42.67a26,26,0,0,1,.3-5.43,4.15,4.15,0,0,0-.08-1,14.62,14.62,0,0,0-1.93-.26,18.83,18.83,0,0,1-4.46-.93,2.58,2.58,0,0,1-1.89-1.92,6.93,6.93,0,0,1,.14-4.27,1.44,1.44,0,0,1,1.51-1,5,5,0,0,1,.86.08,40.7,40.7,0,0,0,8.89.36,3.75,3.75,0,0,0,3.51-2.72c.59-1.62,1.1-3.26,1.58-4.91a1.62,1.62,0,0,0-1.53-2.32c-2.43-.23-3.41-1.81-4.09-3.84-.63-1.83-1-3.73-1.68-5.55-.88-2.53-1.56-5.09-2.26-7.66-.36-1.31-.94-2.56-1.35-3.86s-.74-2.76-1.16-4.12c-.65-2.13-1.35-4.25-2-6.37-.32-1-.68-2.06-.94-3.11-.47-1.88-1-3.74-1.53-5.62a19.87,19.87,0,0,1-.26-4.1,1.19,1.19,0,0,1,.69-1,2.45,2.45,0,0,1,1-.4c1.88,0,3.77-.11,5.64,0a2.05,2.05,0,0,1,1.81,1.67c.34,1.18.7,2.36,1,3.56q4,15.46,8,30.94c.13.48.32.94.55,1.6a3.56,3.56,0,0,0,1.28-2.25,32.9,32.9,0,0,1,1.49-5.61,23.77,23.77,0,0,0,.71-2.94c.33-1.4.63-2.81,1-4.21.16-.62.49-1.2.65-1.82.37-1.47.67-3,1-4.42.1-.41.24-.82.38-1.22s.33-.8.43-1.22c.38-1.61.7-3.23,1.1-4.83s.88-3.35,1.42-5a28.07,28.07,0,0,1,1.31-3,2.19,2.19,0,0,1,2-1.37c1.67,0,3.34,0,5,0a3,3,0,0,1,1,.31,1.44,1.44,0,0,1,1,1.49,11,11,0,0,1-.3,2.36c-.77,2.8-1.57,5.58-2.41,8.36q-5.67,18.74-11.38,37.46a46.33,46.33,0,0,1-3.29,8.52,2.62,2.62,0,0,0-.17.57c.15.49.54.47.89.48,1.67,0,3.34.08,5,0a11.21,11.21,0,0,1,4.59,1.17,4.32,4.32,0,0,1,2.6,4c0,.51,0,1,0,1.53q0,45.72,0,91.45a6.58,6.58,0,0,1-.64,3.57,5.5,5.5,0,0,1-3.41,2.82,25.12,25.12,0,0,1-4.71.75c-2.54.13-5.08.06-7.62.05-.51,0-1-.06-1.52-.11a8.7,8.7,0,0,1-6.9-4.37q-1-1.67-2-3.39-12.2-22.6-24.37-45.22c-.41-.76-.81-1.54-1.28-2.27-.16-.24-.54-.33-.83-.49a3.3,3.3,0,0,0-.35,2.23c0,6.75,0,13.5,0,20.25,0,8.5,0,17,0,25.48a9.89,9.89,0,0,1-.88,4.2,4.85,4.85,0,0,1-3.14,2.8,18.82,18.82,0,0,1-4.05.78,62.49,62.49,0,0,1-12.38-.24,15.15,15.15,0,0,1-1.49-.31,4.84,4.84,0,0,1-3.91-4.63c-.06-.65,0-1.3,0-2q0-44.85,0-89.71a12,12,0,0,1,.48-3.87,5.59,5.59,0,0,1,3.64-3.66,19,19,0,0,1,6.63-.79c2.47,0,5-.12,7.41,0,3.61.23,6.75,1.51,8.6,4.9,1.35,2.46,2.65,5,3.94,7.45q2.73,5.28,5.42,10.59,2,4,4,8.11c2.43,4.89,4.83,9.8,7.28,14.68,1.62,3.2,3.31,6.36,5,9.55C1690.88,161.55,1691.16,161.77,1691.74,161.47Z"/><path class="cls-1" d="M1460.06,159.35q0-22.09,0-44.21a17.42,17.42,0,0,1,.36-3.88c.59-2.55,2.26-4,4.84-4.69a27.31,27.31,0,0,1,6.64-.86,4.22,4.22,0,0,0,.87-.1,37.24,37.24,0,0,1,8.88-.62h19.39a18.86,18.86,0,0,1,5.18.53,8.38,8.38,0,0,0,1.94.24,12,12,0,0,1,4,.66,36.79,36.79,0,0,0,3.79.86,25.38,25.38,0,0,1,11.64,6.78,19.52,19.52,0,0,1,3.14,4.12,23.77,23.77,0,0,1,2.86,6.28c.87,1.21.54,2.83,1.43,4,.19.25.12.7.16,1.06a4.48,4.48,0,0,0,.14,1.29c1,2.19.64,4.58,1,6.86a45.78,45.78,0,0,1,.35,6.94c0,7.91,0,15.82,0,23.74a35.92,35.92,0,0,1-.5,6.94,12,12,0,0,0-.19,2.16,10.24,10.24,0,0,1-.53,3.64,5.76,5.76,0,0,0-.26,1.71,4.11,4.11,0,0,1-.56,2.29,1.7,1.7,0,0,0-.27.81,35,35,0,0,1-4.11,11.09,26,26,0,0,1-5,6.23c-4.61,4.45-10.24,6.73-16.43,7.8a59.94,59.94,0,0,1-10.18.93c-6.54,0-13.07.05-19.6-.13a114.86,114.86,0,0,1-14.1-1.15c-3.72-.56-4.84-2-5-5.63,0-.73,0-1.45,0-2.18Zm26.51,29.54c.66.07,1.08.15,1.51.15,3.19,0,6.38.08,9.58.05a16.88,16.88,0,0,0,5.95-.8,7,7,0,0,0,4.14-3.23,18.74,18.74,0,0,0,1.48-3.83,44.07,44.07,0,0,0,1.26-10.78c.09-8.2.07-16.4,0-24.59a49.32,49.32,0,0,0-.48-6.07,21.48,21.48,0,0,0-1.68-6.28,10.47,10.47,0,0,0-6.18-5.77,17.08,17.08,0,0,0-2.51-.72,42,42,0,0,0-12.56-.34c-.2,0-.37.19-.54.28-.32,2-.49,51.61-.2,60.29C1486.38,187.74,1486.49,188.23,1486.57,188.89Z"/><path class="cls-1" d="M1282.24,172.4c-3.23,0-6.26,0-9.36,0a9.71,9.71,0,0,0-.28,1.42c0,1.3,0,2.61,0,3.92v25.7a8.76,8.76,0,0,1-.46,3.19,5.61,5.61,0,0,1-3.78,3.61,15.75,15.75,0,0,1-3.84.7,63.45,63.45,0,0,1-12.17-.21l-.65-.08c-3.35-.59-4.75-2.14-5-5.56,0-.58,0-1.16,0-1.74q0-43.89,0-87.77a25.32,25.32,0,0,1,.33-3.89c.44-2.73,2.32-4.74,5.69-5a19.66,19.66,0,0,0,3.65-.57,11.33,11.33,0,0,1,2.8-.29,43.82,43.82,0,0,0,8.24-.64,9.74,9.74,0,0,1,2-.12c7.55,0,15.1,0,22.65,0a22,22,0,0,1,3.22.41,6,6,0,0,0,1.07.22c2.07-.14,4,.62,5.92,1.13a19.6,19.6,0,0,1,9.33,5.22,19.31,19.31,0,0,1,5.17,8.61c1,1.25.7,2.93,1.42,4.29a4.49,4.49,0,0,1,.17,1.5,10.67,10.67,0,0,0,.36,2.35,9.23,9.23,0,0,1,.5,3.2v11.11a6.31,6.31,0,0,1-.51,3,2.08,2.08,0,0,0-.25,1.05,12.49,12.49,0,0,1-1,4.85,28.1,28.1,0,0,1-2.62,6.14,25.07,25.07,0,0,1-9.16,9,6.75,6.75,0,0,0-.63.43c-.32.77.3,1.13.5,1.64,1.15,2.88,2.56,5.63,3.89,8.42s2.59,5.46,3.86,8.2c1.15,2.48,2.25,5,3.39,7.46.94,2,1.91,4,2.84,6,.66,1.44,1.33,2.88,1.87,4.37a5.42,5.42,0,0,1,.06,3.64,4.77,4.77,0,0,1-2.53,2.58A12.06,12.06,0,0,1,1314,211a75.42,75.42,0,0,1-13.27-.33,7,7,0,0,1-6.09-4.59c-.82-2.09-1.6-4.2-2.37-6.32l-9.15-25.15C1282.88,173.93,1282.59,173.27,1282.24,172.4ZM1272.69,127c0,.73-.1,1.31-.1,1.88,0,1.6,0,3.19,0,4.78,0,6.17,0,12.33,0,18.49,0,.77-.22,1.6.43,2.35.45,0,1,.11,1.45.11,1.67,0,3.34,0,5,0,2.09,0,4.22.21,6.2-.77a1.44,1.44,0,0,1,.43-.06,6.33,6.33,0,0,0,5.38-4.41,22.5,22.5,0,0,0,.8-2.92,34.89,34.89,0,0,0,.38-8.66,17.7,17.7,0,0,0-1.29-6.14A7.75,7.75,0,0,0,1286,127a17,17,0,0,0-2.13-.41c-3.4-.43-6.8,0-10.2.15A4.61,4.61,0,0,0,1272.69,127Z"/><path class="cls-1" d="M1384.14,186.27c-8.15,0-16.2,0-24.25,0a11,11,0,0,0-1.36.17c-.12,1.86-1.26,3.42-1.11,5.29-.9,1.71-.66,3.67-1.22,5.48s-.75,3.67-1.18,5.5a21.15,21.15,0,0,1-1,3.51,7.26,7.26,0,0,1-5.11,4,19.45,19.45,0,0,1-4.28.72,60.28,60.28,0,0,1-12.38-.28,15.14,15.14,0,0,1-2.12-.48,3.92,3.92,0,0,1-2.94-3.86,20.37,20.37,0,0,1,.66-5.82q2.37-10.05,4.77-20.1l13.74-57.75c.44-1.84.84-3.68,1.35-5.49a22.42,22.42,0,0,1,1.33-3.68,11.61,11.61,0,0,1,8.11-6.66,31.1,31.1,0,0,1,8.14-1.1c4.93.16,9.87,0,14.8.05a10.43,10.43,0,0,1,4.49.62,4.14,4.14,0,0,0,1.28.22,9.83,9.83,0,0,1,6.31,3,7.81,7.81,0,0,1,1.34,1.66,29.34,29.34,0,0,1,2.52,7.11c.37,1.73.46,3.58,1.36,5.19a3.27,3.27,0,0,1,.2,1.06,5.9,5.9,0,0,0,.18,1.28,47.83,47.83,0,0,1,1.41,6.11c.32,1.41.71,2.8,1,4.21.18.77.33,1.54.51,2.31.1.42.21.84.31,1.26.16.63.33,1.25.47,1.88a4.32,4.32,0,0,0,.07.64,22.8,22.8,0,0,1,1.12,4.37q.24,1,.51,2.1c.14.55.32,1.1.48,1.65s.26.82.36,1.24q.59,2.64,1.15,5.29c.11.49.21,1,.29,1.48a4,4,0,0,0,.16,1.07,10.25,10.25,0,0,1,.84,3.11c.33,1.69.88,3.33,1.29,5a18.37,18.37,0,0,0,.35,2.14c1,2.57,1.2,5.34,2,8,.53,1.71.72,3.52,1.14,5.26s.93,3.32,1.34,5,.73,3.36,1.1,5.05a22,22,0,0,0,.73,3.16c.74,1.91.4,4.05,1.33,5.9a21,21,0,0,1,0,4.12,4.56,4.56,0,0,1-2.59,3.3,12.51,12.51,0,0,1-3.06,1.07,28.76,28.76,0,0,1-4.54.47,57.34,57.34,0,0,1-10.64-.36,18.6,18.6,0,0,1-2.12-.47,5.41,5.41,0,0,1-3.81-3.58c-.52-1.58-.91-3.21-1.28-4.83-1-4.6-2-9.2-3-13.8C1384.56,187.46,1384.35,186.93,1384.14,186.27Zm-3.93-19.7c-.1-.66-.14-1-.21-1.35-.63-3.05-1.25-6.11-1.89-9.16q-2.79-13.41-5.6-26.83a11,11,0,0,0-.31-1.26.76.76,0,0,0-1.25-.23,3,3,0,0,0-.55,1.13c-.18.78-.19,1.59-.42,2.35-.49,1.59-.52,3.26-1.09,4.85-.39,1.12-.46,2.38-.76,3.58a19.61,19.61,0,0,1-1,4,2,2,0,0,0-.1.86,5.71,5.71,0,0,1-.47,2.33,5.08,5.08,0,0,0-.33,1.47,49.17,49.17,0,0,1-1.27,6.14c-.12.49-.25,1-.34,1.48a29.2,29.2,0,0,1-.88,4.9c-.65,1.79-.43,3.69-1.15,5.33a2.4,2.4,0,0,0,2.14.67h13.5C1378.84,166.79,1379.4,166.67,1380.21,166.57Z"/><path class="cls-1" d="M1598.4,186.5c-2.16-.33-12.27-.42-24.31-.23-.57,0-1.13.09-1.83.14-.39,1.67-.68,3.3-1.15,4.88-.56,1.87-.46,3.88-1.22,5.71a3.9,3.9,0,0,0-.21,1.28,4.53,4.53,0,0,1-.62,2.49,1.38,1.38,0,0,0-.21.83c.18,1.52-.57,2.85-1,4.19a6.65,6.65,0,0,1-4.74,4.41,18.84,18.84,0,0,1-4.27.75,60.32,60.32,0,0,1-12.6-.28,12.65,12.65,0,0,1-2.7-.78,3.34,3.34,0,0,1-2.12-2.81,14.64,14.64,0,0,1,.3-5.4c.94-4.24,1.94-8.48,3-12.71q5.85-24.65,11.71-49.29,2.58-10.78,5.17-21.57a20.76,20.76,0,0,1,2.77-6.81,10.52,10.52,0,0,1,7.72-4.66,5.53,5.53,0,0,0,1.49-.25,9.57,9.57,0,0,1,4.06-.6q8.27,0,16.54,0a9.41,9.41,0,0,1,4.06.6,4.57,4.57,0,0,0,1.49.25,11,11,0,0,1,5,1.89,8.76,8.76,0,0,1,3.35,4.39,20.26,20.26,0,0,1,1.68,5.77,1.91,1.91,0,0,0,.13.63c.83,1.88.84,4,1.49,5.86.58,1.71.56,3.53,1.3,5.24a25.27,25.27,0,0,1,1,4.83c.1.5.24,1,.37,1.47s.28,1.11.4,1.67a5.94,5.94,0,0,0,.11.86c1.08,2.55,1.11,5.37,2,7.95-.06,1.85,1.13,3.43,1.1,5.27.88,1.55.69,3.37,1.3,5a38.27,38.27,0,0,1,1.16,5c.28,1.27.47,2.57.86,3.81.3,1,.28,2.06.66,2.93.68,1.55.53,3.28,1.29,4.79a6.25,6.25,0,0,1,.26,1.26c.17.7.35,1.39.54,2.08.06.2.23.4.24.6a14.83,14.83,0,0,0,.8,3.58c.41,1.45.55,3,.87,4.46s.74,2.79,1.06,4.19c.46,2,.9,4.08,1.41,6.09.45,1.75.63,3.54,1.13,5.26a11.17,11.17,0,0,1,.39,3.44,5.25,5.25,0,0,1-3.12,4.83,9,9,0,0,1-2.68.81,43.4,43.4,0,0,1-5.2.43,52,52,0,0,1-9.34-.34,3.29,3.29,0,0,0-.44,0,6.71,6.71,0,0,1-6.32-5.64c-.45-2-.91-4.1-1.36-6.15-.78-3.55-1.54-7.09-2.31-10.63C1598.78,187.7,1598.59,187.15,1598.4,186.5Zm-12.17-58.84c-1.67-.21-2,0-2.18,1.34-.28,1.85-.62,3.68-1,5.52,0,.21-.19.39-.24.6-.18.69-.35,1.39-.49,2.09a9.1,9.1,0,0,1-.17,1.29c-1,2.88-.91,6-2,8.84a1.94,1.94,0,0,0-.08.64,7,7,0,0,1-.58,2.74,5.6,5.6,0,0,0-.25,1.49,6,6,0,0,1-.2,1.49,8,8,0,0,0-.65,3,7.17,7.17,0,0,1-.32,1.25c-.18.69-.36,1.38-.51,2.08s-.27,1.42-.43,2.12a29.92,29.92,0,0,0-.65,4.24,2.91,2.91,0,0,0,.89.37q7.71.06,15.43.07a5.45,5.45,0,0,0,1.19-.24c.1-.22.23-.37.21-.48q-3.7-18.19-7.44-36.38C1586.63,129,1586.4,128.3,1586.23,127.66Z"/><path class="cls-1" d="M1783.62,186.47c-1.9-.25-20.62-.38-25.21-.19a11.31,11.31,0,0,0-1.31.2c-.18,1.85-1.17,3.48-1,5.34-1,1.68-.44,3.74-1.41,5.42a1.5,1.5,0,0,0-.15.63,42.79,42.79,0,0,1-1.42,7,7,7,0,0,1-5.65,5.61,22.27,22.27,0,0,1-3.44.49,62.59,62.59,0,0,1-12.39-.29,12.83,12.83,0,0,1-2.71-.75,3.27,3.27,0,0,1-2.24-3.18,28.05,28.05,0,0,1,.28-5.19c.53-2.85,1.33-5.64,2-8.46.61-2.53,1.2-5.07,1.81-7.61.74-3.09,1.5-6.19,2.23-9.29.89-3.73,1.75-7.46,2.63-11.19.7-3,1.43-5.91,2.12-8.87.4-1.69.74-3.39,1.13-5.08.3-1.34.63-2.67,1-4,.94-3.79,1.91-7.58,2.81-11.38s1.75-7.76,2.67-11.63c.74-3.1,1.46-6.2,2.39-9.24a13.39,13.39,0,0,1,2.41-4.57,10.39,10.39,0,0,1,6.51-3.58c.85-.15,1.69-.37,2.54-.52a12.11,12.11,0,0,1,2.14-.3q9.48,0,19,0a15.19,15.19,0,0,1,2.55.46c.64.12,1.27.26,1.91.36a9.56,9.56,0,0,1,7.06,4.13,20.71,20.71,0,0,1,2,4.29,9.34,9.34,0,0,1,.84,3.57c.88,1.54.45,3.45,1.42,5a2.93,2.93,0,0,1,.19,1,6.08,6.08,0,0,0,.18,1.29,49.49,49.49,0,0,1,1.37,5.9c.38,1.54.79,3.07,1.18,4.62.15.63.26,1.26.4,1.9.11.49.23,1,.35,1.47s.29,1.25.45,1.88.34,1.24.53,1.85c.06.21.24.4.24.6a15,15,0,0,0,.83,3.8c.38,1.46.54,3,.87,4.46s.71,2.65,1,4a55.44,55.44,0,0,1,1.38,6.1,4.64,4.64,0,0,0,.32,1,4.22,4.22,0,0,1,.41,1,12.63,12.63,0,0,0,.74,3.37,30.71,30.71,0,0,1,.78,3.6c.37,1.69.77,3.37,1.15,5.06a23.23,23.23,0,0,0,.76,3.37,16,16,0,0,1,.71,2.7c.33,1.69.83,3.35,1.26,5,.1.42.16.85.27,1.27.17.69.36,1.39.55,2.08.09.35.22.68.3,1q.65,2.85,1.26,5.7c.1.5.14,1,.21,1.51a6.24,6.24,0,0,0,.28,1.7,8.87,8.87,0,0,1,.56,3.84,5.43,5.43,0,0,1-4.59,5.71,26.75,26.75,0,0,1-3.45.48,66.28,66.28,0,0,1-12-.27c-.22,0-.43,0-.65-.08-3.11-.46-5.2-2.07-5.92-5.24s-1.39-6.08-2.06-9.12c-.63-2.83-1.23-5.67-1.86-8.5C1784,187.36,1783.79,187,1783.62,186.47Zm-4-19.89c-.17-1.06-.26-1.84-.42-2.61-.63-3.05-1.29-6.09-1.92-9.14q-2.67-12.89-5.34-25.76a10.86,10.86,0,0,0-.54-1.52c-1.68,0-2.12.08-2.22.93-.18,1.44-.65,2.81-1,4.22-.38,1.68-.57,3.41-.87,5.12a6.84,6.84,0,0,1-.31,1c-.56,1.71-.45,3.58-1.26,5.23.07,2-.86,3.77-1,5.73a35,35,0,0,1-1.26,5.26,8.36,8.36,0,0,0-.14.85c-.28,1.64-.53,3.28-.84,4.91-.17.92-.48,1.81-.67,2.73s-.29,1.8-.43,2.71c.21.14.39.35.57.35q7.82.1,15.65.17C1778.16,166.8,1778.72,166.68,1779.59,166.58Z"/><path class="cls-1" d="M1006.44,148.71V114.52c0-.8,0-1.6,0-2.4a6.67,6.67,0,0,1,2.63-4.81c.17-.14.33-.35.52-.39,1.49-.27,2.81-1.15,4.39-1.13,3.85,0,7.69,0,11.54,0,1.57,0,2.94.74,4.37,1.2a3.41,3.41,0,0,1,1.76,1.82,8.76,8.76,0,0,1,.82,4.41q0,31.9,0,63.81c0,1.52.09,3.05,0,4.57a10.5,10.5,0,0,0,.94,4.84,4.62,4.62,0,0,0,1.31,1.67,7,7,0,0,0,4.33,1.72c3.42,0,6.83,0,10.24,0a6.94,6.94,0,0,0,3.44-1.17,3.4,3.4,0,0,0,1.77-2.37c.25-1.43.5-2.86.64-4.3.1-1.08,0-2.17,0-3.26v-64c0-.87,0-1.74,0-2.61a6.59,6.59,0,0,1,2.32-4.53,2.64,2.64,0,0,1,1.07-.71c1.61-.4,3.1-1.17,4.84-1.12,3.33.09,6.68.1,10,0a13.18,13.18,0,0,1,5,1.16c1.69.62,2.42,2.2,2.69,3.93a11.21,11.21,0,0,1,.07,1.74q0,33.64,0,67.29a28.26,28.26,0,0,1-.48,6.29,16.48,16.48,0,0,0-.21,1.72,28.61,28.61,0,0,1-3.73,11.41,22.65,22.65,0,0,1-11.41,9.59,43.62,43.62,0,0,1-11.2,2.64,104.65,104.65,0,0,1-17.61.37,47.67,47.67,0,0,1-13.89-2.46,34.2,34.2,0,0,1-4-1.71,19.93,19.93,0,0,1-9.25-9.77,34.62,34.62,0,0,1-2.6-9.63,63.22,63.22,0,0,1-.5-9.12Q1006.45,163.95,1006.44,148.71Z"/><path class="cls-1" d="M948.74,178.75a4.61,4.61,0,0,0-.3,2.45q0,10.45,0,20.9c0,.73,0,1.45,0,2.18a6.14,6.14,0,0,1-4.47,6,16,16,0,0,1-3.42.65,61,61,0,0,1-13-.24,10.27,10.27,0,0,1-1.89-.48,4.49,4.49,0,0,1-3.15-3.81,14.28,14.28,0,0,1-.12-2.17q0-44.75,0-89.49a15.3,15.3,0,0,1,.38-3.44,6,6,0,0,1,5.65-4.61,18.67,18.67,0,0,0,3.86-.59,10.13,10.13,0,0,1,2.59-.27,42.05,42.05,0,0,0,8.23-.64,9.82,9.82,0,0,1,2.17-.12q11.22,0,22.43,0a11.76,11.76,0,0,1,3.44.42,9.65,9.65,0,0,0,2.14.34,8.2,8.2,0,0,1,3,.62c1,.47,2.22.51,3.33.9a19.74,19.74,0,0,1,10.59,8.44,22.81,22.81,0,0,1,3,6.94c.44,2,1.35,3.84,1.13,5.92a1.41,1.41,0,0,0,.09.64,22,22,0,0,1,.62,6.91c0,3,0,6,0,8.92a11.36,11.36,0,0,1-.46,3.66,3.83,3.83,0,0,0-.25,1.49c.22,2-.73,3.81-1.15,5.69a27.07,27.07,0,0,1-2.51,6.43,26,26,0,0,1-11.71,11.44,43.42,43.42,0,0,1-13.08,3.86,92.73,92.73,0,0,1-14.32.88c-.73,0-1.45,0-2.18.06A2.62,2.62,0,0,0,948.74,178.75Zm-.15-21.25a3.24,3.24,0,0,0,.68.21c4.05.12,8.12.26,12.1-.75,2.71-.69,4.93-2.17,5.77-5a28,28,0,0,0,1-4.88,49.73,49.73,0,0,0,0-9.76,18.63,18.63,0,0,0-1.39-5.89,7.4,7.4,0,0,0-4.62-4.31,12.91,12.91,0,0,0-2.54-.54c-3.4-.42-6.8,0-10.19.16a2.7,2.7,0,0,0-.74.31c-.33,2-.45,16.3-.22,28.73C948.45,156.32,948.53,156.88,948.59,157.5Z"/><path class="cls-1" d="M1197.57,167.6a14.79,14.79,0,0,0-.23,1.8c0,5.66,0,11.32,0,17a12.87,12.87,0,0,0,.18,1.49,4.35,4.35,0,0,0,2.39.3q14.16,0,28.32,0c1.16,0,2.32,0,3.48,0a5.37,5.37,0,0,1,4.54,2.49,2.23,2.23,0,0,1,.4.76,23.18,23.18,0,0,1,.79,4.71c-.08,2-.07,4.06,0,6.09a15.1,15.1,0,0,1-.74,4.92,4.67,4.67,0,0,1-1.92,2.54,7.74,7.74,0,0,1-3.85,1.36c-.58,0-1.16,0-1.74,0q-25.7,0-51.4,0a23.07,23.07,0,0,1-3.89-.36,3.28,3.28,0,0,1-2.78-2.7,17.48,17.48,0,0,1-.34-2.15,16.8,16.8,0,0,1,0-1.74q0-45.18,0-90.37a26.58,26.58,0,0,1,.25-3.46,4.26,4.26,0,0,1,1.65-2.73,7.36,7.36,0,0,1,4.94-1.83c16.91.06,33.83,0,50.75,0,.72,0,1.45.08,2.18,0,1.92-.16,3.08,1,4.11,2.34a1.31,1.31,0,0,1,.31.56c.15,1.88,1.09,3.61.91,5.56a22.85,22.85,0,0,0,0,3.7,21.31,21.31,0,0,1-.84,6.65,2.35,2.35,0,0,1-.33.78c-1.44,2-3.21,3.34-5.77,3.38h-28.75c-.79,0-1.58,0-2.49.05a7.77,7.77,0,0,0-.33,1.49q0,6.54,0,13.07a8.82,8.82,0,0,0,.3,1.56c.87,0,1.66.06,2.45.06,6.46,0,12.93,0,19.39,0a5.27,5.27,0,0,1,2.11.28,3.93,3.93,0,0,1,2.33,2.64,16.09,16.09,0,0,1,.67,4.7c0,2.54-.07,5.08,0,7.62a10.27,10.27,0,0,1-1,4.18,5.24,5.24,0,0,1-3.71,2.78,10.08,10.08,0,0,1-2.8.32c-5.66,0-11.32,0-17,0C1199.28,167.54,1198.49,167.58,1197.57,167.6Z"/><path class="cls-1" d="M1139.28,128.8a8.92,8.92,0,0,0-.29,1.37c0,.79,0,1.59,0,2.39v70.11a16,16,0,0,0,0,2c.27,2.46-1.86,4.93-4,5.57a16.74,16.74,0,0,1-3.83.74,63.16,63.16,0,0,1-12.6-.23,12,12,0,0,1-1.7-.38,4.58,4.58,0,0,1-3.6-4.6c-.06-.87,0-1.75,0-2.62v-71.2c0-.93-.05-1.86-.07-2.67a2.78,2.78,0,0,0-2.23-.48c-4.71,0-9.43,0-14.15,0-.65,0-1.31,0-2,0a4.26,4.26,0,0,1-4.23-3.42,27.54,27.54,0,0,1-.71-4.5,36.11,36.11,0,0,1,.33-8.69,19.67,19.67,0,0,1,1-3.31,6.43,6.43,0,0,1,2.68-2.76,2.45,2.45,0,0,1,1.26-.23c1.08,0,2.17,0,3.26,0h56c1,0,2,0,3,0a4.35,4.35,0,0,1,4.16,3.13,11.73,11.73,0,0,1,.72,4.46c0,2.75,0,5.51,0,8.27a8.81,8.81,0,0,1-2.08,5.33,4.68,4.68,0,0,1-3.41,1.72c-.65.06-1.3.05-2,.05h-13.28C1140.77,128.75,1140.05,128.78,1139.28,128.8Z"/><path class="cls-1" d="M1319.45,52c.31-.43.62-.83.89-1.24a11.68,11.68,0,0,1,7.16-5,24.09,24.09,0,0,1,7.57-.6,27.1,27.1,0,0,1,4.3.58,7.9,7.9,0,0,1,5.82,4.78c.13.31.32.6.57,1.06a4.14,4.14,0,0,0,.67-.68c2.21-3.58,5.61-5.12,9.61-5.6a33.05,33.05,0,0,1,7.17,0c.22,0,.44,0,.65.07,4.88.73,7.31,3.1,8.12,8a22.37,22.37,0,0,1,.3,3.47q0,15.78,0,31.58v.21c.1,1.85-.16,3-2.9,3.16-1.8.12-3.63.07-5.44,0a2,2,0,0,1-2.08-2,18.26,18.26,0,0,1,0-2q0-13.61,0-27.22a6.58,6.58,0,0,0-.67-3.59,3.5,3.5,0,0,0-2.47-1.89c-.64-.1-1.28-.22-1.92-.37a6,6,0,0,0-2.8,0c-.57.12-1.13.27-1.71.35a6,6,0,0,0-5.22,4.74,31.48,31.48,0,0,0-.81,6.89q0,10.58,0,21.13c0,.65,0,1.31,0,2a2.07,2.07,0,0,1-2,2c-1.74.09-3.49.07-5.23,0a2,2,0,0,1-1.89-1.8,15.63,15.63,0,0,1-.08-2.17V61.23a21.13,21.13,0,0,0-.06-2.39,4.5,4.5,0,0,0-1.67-3.17,3,3,0,0,0-.94-.51,13.69,13.69,0,0,0-7.92.05,6.06,6.06,0,0,0-3.3,2.35,7.55,7.55,0,0,0-1.4,3.13,40.64,40.64,0,0,0-1,6.22c0,5.59-.07,11.18-.1,16.77,0,1.67,0,3.34,0,5a12.79,12.79,0,0,1-.06,1.52,1.6,1.6,0,0,1-1.54,1.55c-1.81,0-3.63.09-5.44,0a2.18,2.18,0,0,1-2.13-2.31c0-.58,0-1.16,0-1.74,0-7.7,0-15.39,0-23.09a57.8,57.8,0,0,0-.9-10.83c-.28-1.5-.65-3-1-4.46a8.09,8.09,0,0,1-.21-1.07,1.75,1.75,0,0,1,1.22-1.85,2.65,2.65,0,0,1,.84-.2c1.37,0,2.75,0,4.13,0a1.93,1.93,0,0,1,1.83,1.32,20.81,20.81,0,0,1,.87,2.67A2.33,2.33,0,0,0,1319.45,52Z"/><path class="cls-1" d="M1567.48,68.27c.34.79.64,1.52,1,2.23q3.78,8.09,7.56,16.16a16.41,16.41,0,0,1,.93,2.21c.54,1.74-.24,2.85-2.07,2.92-1.52.06-3,0-4.57,0a2.71,2.71,0,0,1-2.68-1.83c-.85-1.9-1.63-3.82-2.46-5.72-1.34-3.09-2.44-6.29-3.88-9.34-.8-1.68-1.39-3.46-2-5.12a48.14,48.14,0,0,0-10.11,0,3.62,3.62,0,0,0-.31,2.29c0,5.45,0,10.89,0,16.33v2.19a2.61,2.61,0,0,1-2.39,1.24c-1.38,0-2.76,0-4.14,0a5,5,0,0,1-1.28-.17,2.08,2.08,0,0,1-1.74-2.19c0-.5,0-1,0-1.52V39.15c0-.65,0-1.3,0-1.95a2.39,2.39,0,0,1,2-2.3,15.72,15.72,0,0,1,2.36-.4,129.73,129.73,0,0,1,18.7-.47,27.85,27.85,0,0,1,5.36.86,9.36,9.36,0,0,1,7.21,7.1,25.49,25.49,0,0,1,.81,4.49,37.46,37.46,0,0,1-.54,10.83,17.27,17.27,0,0,1-2,5.66,12.59,12.59,0,0,1-4.63,4.45A7.35,7.35,0,0,0,1567.48,68.27ZM1549,61.14a4.48,4.48,0,0,0,.93.2c2.68,0,5.36.06,8-.06a17.48,17.48,0,0,0,4-.72,5.51,5.51,0,0,0,4-4.21,15.11,15.11,0,0,0,0-8.76c-.76-2.25-2.11-3.57-4.41-3.78a7.74,7.74,0,0,1-1.08-.1c-2.73-.76-5.47-.4-8.21-.12L1549,44a11.54,11.54,0,0,0-.21,1.15C1548.65,48.19,1548.79,59.48,1549,61.14Z"/><path class="cls-1" d="M936.78,72.21a3.93,3.93,0,0,0-.24,2.12q0,6.84,0,13.7c0,.44,0,.87,0,1.31,0,1.83-.62,2.42-2.5,2.46-1.45,0-2.9,0-4.35,0a5.67,5.67,0,0,1-1.09-.1c-1.71-.32-2.21-.9-2.27-2.62,0-.43,0-.87,0-1.3V39.27a18.26,18.26,0,0,1,0-2,2.52,2.52,0,0,1,2.1-2.44,12.91,12.91,0,0,1,2.14-.35A128.4,128.4,0,0,1,949.5,34a25.59,25.59,0,0,1,5.34.9,9.46,9.46,0,0,1,6.91,6.61,19,19,0,0,1,1.07,6c0,3.26.12,6.53-.05,9.78a17.25,17.25,0,0,1-3.21,9.3,10.17,10.17,0,0,1-5,3.64,24.89,24.89,0,0,1-9.34,1.68c-2.09-.1-4.2,0-6.31,0A3.75,3.75,0,0,0,936.78,72.21Zm0-9.21a6.25,6.25,0,0,0,.95.16c1.67,0,3.34.06,5,0a40.49,40.49,0,0,0,4.54-.39c3.64-.56,5.54-2.61,6.2-6a31.9,31.9,0,0,0,.13-9.1,2.39,2.39,0,0,0-.32-1c-1-1.48-2.07-2.78-4.06-2.83a11,11,0,0,1-1.71-.24,15.79,15.79,0,0,0-4.55-.23c-1.66.18-3.32.3-5,.47a9.16,9.16,0,0,0-1.16.23C936.47,45.86,936.44,60.77,936.73,63Z"/><path class="cls-1" d="M1128.55,69.1l9.76,12.46c1.56,2,3.12,4,4.65,6a5.34,5.34,0,0,1,1.31,2.72,2.4,2.4,0,0,1-2.58,1.55,32.62,32.62,0,0,0-3.7,0,4,4,0,0,1-3.57-1.7c-1.44-1.82-2.86-3.65-4.28-5.48l-8.75-11.38c-.3-.39-.66-.73-1.15-1.27a4.58,4.58,0,0,0-.41,1.14c0,1.59,0,3.19,0,4.78V88.59c0,.43,0,.87,0,1.3a1.76,1.76,0,0,1-1.72,1.87c-2,.06-3.91,0-5.87,0a3.94,3.94,0,0,1-1.05-.26,1.78,1.78,0,0,1-1.4-1.73c0-.58,0-1.16,0-1.74V34.69c0-.51,0-1,0-1.53.08-1.2.48-1.78,1.6-2a14.91,14.91,0,0,1,5.41,0,1.84,1.84,0,0,1,1.63,1.53,2.47,2.47,0,0,0,.6,1.35,2.89,2.89,0,0,1,.85,2.57v7.62c0,5.88,0,11.75,0,17.63,0,.68-.23,1.45.44,2.09a5.45,5.45,0,0,0,1.62-1.73q5.15-6.48,10.26-13c2.33-2.95,2.61-3.09,6.44-3.08a24.1,24.1,0,0,1,2.82.14c1,.15,1.36.56,1.49,1.57.07.5.13,1,.17,1.51a2.84,2.84,0,0,1-.65,2.2c-1.57,1.87-3,3.86-4.51,5.78q-3.08,3.91-6.19,7.8c-.77,1-1.6,1.87-2.37,2.82A12.54,12.54,0,0,0,1128.55,69.1Z"/><path class="cls-1" d="M1191.85,69.09c0,1.6,0,3.19,0,4.79a13.73,13.73,0,0,1-.54,4.72,6,6,0,0,0-.22,1.28,17.57,17.57,0,0,1-2.95,7.76,10.87,10.87,0,0,1-6,4.06c-.88.28-1.8.42-2.69.75a5.88,5.88,0,0,1-1.93.22c-3.12,0-6.24.07-9.35,0a17,17,0,0,1-7.3-1.93,10.08,10.08,0,0,1-4.57-5.06,21.45,21.45,0,0,1-1.6-5.85,53.65,53.65,0,0,1-.52-6.06q-.12-4.78,0-9.57a33.85,33.85,0,0,1,1.28-8.36,21.57,21.57,0,0,1,.86-2.45,12.08,12.08,0,0,1,8.15-7.25,27.86,27.86,0,0,1,7.08-1,45.45,45.45,0,0,1,9.32.52c4.89.86,7.82,3.82,9.21,8.45a36.07,36.07,0,0,1,1.73,11.94C1191.81,67.06,1191.85,68.08,1191.85,69.09Zm-9.39-.55c0-2,.1-4.07,0-6.09a30.32,30.32,0,0,0-.82-4.91,3.52,3.52,0,0,0-2.3-2.41,14.87,14.87,0,0,0-10.21.07,4.43,4.43,0,0,0-2.7,2.37c-.47,1.11-1.18,2.17-1.05,3.49a2.79,2.79,0,0,1-.18,1.28,11.4,11.4,0,0,0-.58,4.29c0,2.39,0,4.79,0,7.18a14.18,14.18,0,0,0,.52,4.09,5.27,5.27,0,0,1,.26,1.93,6,6,0,0,0,1.08,3.24,3.3,3.3,0,0,0,2.33,1.81,19.41,19.41,0,0,0,7.78,0,6.1,6.1,0,0,0,4.73-4.06,22.61,22.61,0,0,0,.79-2.93A44.09,44.09,0,0,0,1182.46,68.54Z"/><path class="cls-1" d="M1071,72.23a13.87,13.87,0,0,0,.33,5.28,5.08,5.08,0,0,1,.33,1.7,6.47,6.47,0,0,0,1.09,3.47,4.28,4.28,0,0,0,3.74,2.23,46.65,46.65,0,0,0,14.28-1,17.06,17.06,0,0,1,2.13-.42,1.85,1.85,0,0,1,2.11,1.17,5.59,5.59,0,0,1-.1,5,2.29,2.29,0,0,1-1.09,1,12.46,12.46,0,0,1-4.14,1.19,5.07,5.07,0,0,0-1.71.27,9.34,9.34,0,0,1-3.84.59c-2.61,0-5.23-.06-7.84,0a21.8,21.8,0,0,1-6.43-.94,11.08,11.08,0,0,1-7.57-6.65,23.41,23.41,0,0,1-1.69-6.51A71.11,71.11,0,0,1,1061,58a22.33,22.33,0,0,1,1.81-5.8,11.2,11.2,0,0,1,7.83-6.36,19.43,19.43,0,0,1,3.87-.56c2.68-.08,5.37-.09,8,0a18.21,18.21,0,0,1,3.85.69,10.7,10.7,0,0,1,7.59,6.87,21.21,21.21,0,0,1,1.79,8.65c-.07,1.81.1,3.62.12,5.44a24.09,24.09,0,0,1-.13,2.82,2.17,2.17,0,0,1-2.11,2.09,18.32,18.32,0,0,1-2,0h-17.86A6.57,6.57,0,0,0,1071,72.23Zm.26-7.1a4.85,4.85,0,0,0,.93.18c4.56,0,9.12,0,13.69,0a3.63,3.63,0,0,0,1-.29,24.47,24.47,0,0,0-.38-7.42,3.36,3.36,0,0,0-2.35-2.58,12.62,12.62,0,0,0-6.62-.59c-2.43.34-4.54,1.33-5.34,4a10.6,10.6,0,0,0-.49,1.86,18.52,18.52,0,0,1-.43,2.34A3.36,3.36,0,0,0,1071.28,65.13Z"/><path class="cls-1" d="M986.27,72.2a15.78,15.78,0,0,0,.19,5.18c.13.79.37,1.56.42,2.35a6.82,6.82,0,0,0,1.09,3,4.49,4.49,0,0,0,3.81,2.15,47.45,47.45,0,0,0,14.69-1.11,14.11,14.11,0,0,1,2.14-.38,1.34,1.34,0,0,1,1.52,1,7.18,7.18,0,0,1,.29,4.47,2.61,2.61,0,0,1-2,2.06c-1.33.31-2.56,1-4,.92a2.26,2.26,0,0,0-1.05.2,10.06,10.06,0,0,1-4.27.64c-2.54,0-5.08-.07-7.62,0a20.06,20.06,0,0,1-6.62-1.08,10.8,10.8,0,0,1-6.83-6,26.21,26.21,0,0,1-2.07-8,75.41,75.41,0,0,1-.36-12.39,43.24,43.24,0,0,1,1.24-9.25,19.19,19.19,0,0,1,1.9-4.84,10.73,10.73,0,0,1,6.07-5,15.15,15.15,0,0,1,2.95-.73,43.11,43.11,0,0,1,12.78.17c5.37,1,8.29,4.39,9.56,9.48,1.08,4.34.9,8.78,1,13.19,0,2.47-.7,3.64-3.69,3.6-6.16-.09-12.33,0-18.49,0A5.79,5.79,0,0,0,986.27,72.2Zm.14-7.09a13.64,13.64,0,0,0,1.67.22q6.51,0,13,0a6.57,6.57,0,0,0,1.31-.26,28.33,28.33,0,0,0-.33-7,7.87,7.87,0,0,0-.3-.81,3.3,3.3,0,0,0-2.22-2.17,12.31,12.31,0,0,0-8.88-.09,4.9,4.9,0,0,0-3.11,3,32.37,32.37,0,0,0-1.29,6.12A3.46,3.46,0,0,0,986.41,65.11Z"/><path class="cls-1" d="M1736.6,55.92a4.07,4.07,0,0,1-.51-.77,12.19,12.19,0,0,1-.41-6.42,2.17,2.17,0,0,1,1.73-1.76c1.83-.43,3.66-.89,5.52-1.19a56.36,56.36,0,0,1,13.67-.49,26.68,26.68,0,0,1,4.69.85,8.18,8.18,0,0,1,6.1,6.7,25.26,25.26,0,0,1,.48,4.75c.06,5.08.05,10.16,0,15.24a58.17,58.17,0,0,0,1.63,14.87,9.17,9.17,0,0,1,.26,1.72c.08,1.32-.49,2.17-1.78,2.28a35,35,0,0,1-5.22,0,1.92,1.92,0,0,1-1.58-1.59c-.28-1-.51-2.1-.79-3.15a4.5,4.5,0,0,0-.41-1,.71.71,0,0,0-1-.15,9,9,0,0,0-.66.84,15,15,0,0,1-7.49,5.24,17.28,17.28,0,0,1-5.77.77h-2.39a9.27,9.27,0,0,1-9.52-7.81,25.51,25.51,0,0,1,0-10.37,9.28,9.28,0,0,1,6.15-7,19.17,19.17,0,0,1,6.15-1.27c3.48-.1,7-.12,10.45-.18a7.05,7.05,0,0,0,2.69-.27,8.48,8.48,0,0,0,.2-1.21c0-1.24-.07-2.48,0-3.7a7.46,7.46,0,0,0-.94-3.75,3.81,3.81,0,0,0-2.64-2,20.33,20.33,0,0,0-9-.12c-.78.16-1.59.08-2.38.17a10.62,10.62,0,0,0-2.34.42A11.15,11.15,0,0,1,1736.6,55.92Zm22,16.9c-.65-.06-1.21-.16-1.77-.17-1.67,0-3.34.07-5,0a21.72,21.72,0,0,0-7.49.91,3.61,3.61,0,0,0-2.68,2.79,16,16,0,0,0,0,5.82,3.29,3.29,0,0,0,2.57,2.85,13.12,13.12,0,0,0,6.23,0,9.73,9.73,0,0,0,7.18-5,10.48,10.48,0,0,0,.93-2.62A10.6,10.6,0,0,0,1758.64,72.82Z"/><path class="cls-1" d="M1436.77,65.75a18.94,18.94,0,0,0-.31-8,4.16,4.16,0,0,0-3.28-2.75,19.9,19.9,0,0,0-8.62-.09,11.57,11.57,0,0,1-2,.16,7.8,7.8,0,0,0-3.4.61,3.33,3.33,0,0,1-1.26.25c-1,0-2,0-3,0a3.24,3.24,0,0,1-1.14-2.56c0-1.31-.06-2.61,0-3.92a2.43,2.43,0,0,1,2-2.53c1.06-.26,2.11-.55,3.17-.76a60.65,60.65,0,0,1,16.25-.88,17.72,17.72,0,0,1,5.09,1.08,8.06,8.06,0,0,1,5,5.34,15.82,15.82,0,0,1,.61,3c.13,1.22.16,2.46.17,3.69,0,4.57,0,9.14,0,13.72a66.68,66.68,0,0,0,.68,10.84c.28,1.65.64,3.27,1,4.91.08.42.23.84.28,1.27a2.09,2.09,0,0,1-2.12,2.65c-1.59.11-3.19,0-4.79,0a1.54,1.54,0,0,1-1.55-1.29c-.21-1.29-1.08-2.39-1-3.75a1.15,1.15,0,0,0-.37-.76.75.75,0,0,0-1-.1,2.18,2.18,0,0,0-.43.48,14.52,14.52,0,0,1-8,5.63,15.55,15.55,0,0,1-4.9.71,25.23,25.23,0,0,0-2.61,0,9.45,9.45,0,0,1-4.83-1,8,8,0,0,1-4.36-4.61,21.18,21.18,0,0,1-1.14-9.85,20,20,0,0,1,.62-3.42,9,9,0,0,1,5.41-6.14,18.1,18.1,0,0,1,6.54-1.48c3.56-.13,7.11-.13,10.67-.2A5.82,5.82,0,0,0,1436.77,65.75Zm.08,7.19a2.83,2.83,0,0,0-.62-.24c-4.54,0-9.11-.5-13.57.8a3.67,3.67,0,0,0-2.65,2.55,12.51,12.51,0,0,0-.09,6,3.5,3.5,0,0,0,2.73,3,13.3,13.3,0,0,0,7.68-.38,8.91,8.91,0,0,0,5.1-3.82A11.17,11.17,0,0,0,1436.85,72.94Z"/><path class="cls-1" d="M1295.64,68.44c-.2,3.2-.25,6.26-.62,9.27a24,24,0,0,1-2.27,7.87,11.11,11.11,0,0,1-8.07,6.27c-.35.07-.68.25-1,.33a13.19,13.19,0,0,1-2.54.47c-3.19.06-6.38.12-9.57,0a14.85,14.85,0,0,1-7.37-2.32,10.05,10.05,0,0,1-3.64-4.24,21.88,21.88,0,0,1-1.76-6c-.11-.64-.22-1.29-.27-1.94-.51-7-.77-13.91.65-20.8a27,27,0,0,1,.83-2.92,12.49,12.49,0,0,1,9.8-8.61,35,35,0,0,1,7.36-.68,39.87,39.87,0,0,1,8,.59,10.79,10.79,0,0,1,8.75,7.83,27.66,27.66,0,0,1,1.23,6.17C1295.36,62.65,1295.48,65.62,1295.64,68.44Zm-9.08,1.39c0-2.18,0-3.7,0-5.22a22.74,22.74,0,0,0-.27-2.59c-.15-1-.36-2-.53-3a5.05,5.05,0,0,0-2.94-3.79,9.62,9.62,0,0,0-4-.94,16.69,16.69,0,0,0-6.2.8,5.08,5.08,0,0,0-3,2.58,7.09,7.09,0,0,0-1,3.5,6,6,0,0,1-.25,1.48,22,22,0,0,0-.45,3c-.08,2.46,0,4.93-.09,7.39s.61,5,1,7.52a4.67,4.67,0,0,0,4.51,4.44,26.59,26.59,0,0,0,6.49,0c2.71-.35,5.25-1.93,6-5.89A38.65,38.65,0,0,0,1286.56,69.83Z"/><path class="cls-1" d="M1615.71,85.67c-.41.52-.79,1-1.13,1.42a12.76,12.76,0,0,1-7,4.73,5.07,5.07,0,0,0-1,.33,5,5,0,0,1-2.53.53c-1.74,0-3.48,0-5.22,0a9.36,9.36,0,0,1-3-.57c-3.64-1.18-5.55-3.82-6.32-7.38a24.15,24.15,0,0,1-.1-9.73,9.51,9.51,0,0,1,6.6-7.67,18.89,18.89,0,0,1,5.74-1.14c3.63-.11,7.26-.12,10.88-.19.86,0,1.72-.07,2.68-.12a9.08,9.08,0,0,0,.23-1.35c0-1.09-.06-2.18,0-3.26a8.47,8.47,0,0,0-1-4.19,3.4,3.4,0,0,0-2.6-2,21.93,21.93,0,0,0-6.25-.54l-6.27.64a3.1,3.1,0,0,0-1.06.24c-1.57.82-3.24.53-4.78.64a4.9,4.9,0,0,1-1.61-3.15,8.58,8.58,0,0,1-.22-2.15c0-2.89.48-3.48,3.35-4.16a58.31,58.31,0,0,1,18.81-1.2,19.54,19.54,0,0,1,4.43,1,7.86,7.86,0,0,1,5,5.13,17,17,0,0,1,.83,5.57c0,4.93,0,9.86,0,14.8,0,2.17.07,4.35.22,6.52a50,50,0,0,0,1.37,9,13.09,13.09,0,0,1,.4,2.13,1.94,1.94,0,0,1-1.72,2.16c-1.66.1-3.33.06-5,0a1.56,1.56,0,0,1-1.37-1.24c-.39-1.16-.71-2.34-1-3.52C1616.89,86.34,1616.73,85.7,1615.71,85.67Zm-.55-12.9a50.57,50.57,0,0,0-5.89-.12,35.37,35.37,0,0,0-4.12.08,32.54,32.54,0,0,0-4,.77c-1.2.27-1.86,1.25-2.6,2.11-.25,1.64-.86,3.23-.49,4.93.14.63.27,1.27.36,1.92a3,3,0,0,0,2.32,2.53,12.38,12.38,0,0,0,7.89-.36c4.71-1.71,6.33-4.76,6.91-9.56A3.2,3.2,0,0,0,1615.16,72.77Z"/><path class="cls-1" d="M1649.82,65.13c.6-.24.91-.27,1.08-.45a14.29,14.29,0,0,0,1.13-1.32L1663.36,49c.41-.51.82-1,1.25-1.51a3.73,3.73,0,0,1,2.67-1.3c1.59-.06,3.19,0,4.78,0a2.73,2.73,0,0,1,.85.17,1.28,1.28,0,0,1,1,1.69,10.43,10.43,0,0,1-1.5,3.31c-1.3,1.72-2.6,3.44-3.95,5.13-1.85,2.3-3.75,4.57-5.61,6.87-1,1.29-2.07,2.6-3.07,3.92-.68.89-.67,1.24,0,2.15.46.65,1,1.26,1.46,1.89l12.34,15.77a15.92,15.92,0,0,1,1.14,1.59c.82,1.41.5,2.3-1.05,2.85a5.82,5.82,0,0,1-1.71.27c-1.3,0-2.61,0-3.91,0a4,4,0,0,1-3.52-1.79c-3.06-4-6.07-8.07-9.13-12.09-1.26-1.66-2.58-3.28-3.9-4.9a13,13,0,0,0-1.22-1.15c-.2.44-.44.73-.44,1,0,2.47,0,4.94,0,7.4,0,3-.09,6,0,8.93a2.25,2.25,0,0,1-2.64,2.58c-1.3-.09-2.62,0-3.92,0-1.62-.06-2.33-.8-2.43-2.43,0-.51,0-1,0-1.53V34.72q0-.87,0-1.74a1.86,1.86,0,0,1,1.56-1.84,3.44,3.44,0,0,1,.85-.15c1.3,0,2.61-.08,3.91,0s2.34.71,2.36,2.27c0,1.37.24,2.74.25,4.11q0,12.52,0,25C1649.75,63.2,1649.79,64,1649.82,65.13Z"/><path class="cls-1" d="M1471.43,53.43a13.09,13.09,0,0,0,.86-1.16,13.15,13.15,0,0,1,9.67-6.72,26.66,26.66,0,0,1,10.38.1,8.08,8.08,0,0,1,6.79,7.25,26.67,26.67,0,0,1,.36,3.89q0,15.78,0,31.57c0,.15,0,.29,0,.44.09,1.86-.47,2.78-2.64,2.93-1.95.13-3.92.08-5.87,0a1.89,1.89,0,0,1-1.76-1.65,17.58,17.58,0,0,1-.07-2.18q0-13.27,0-26.56c0-.73,0-1.46,0-2.18a4.66,4.66,0,0,0-1.82-3.53,1.65,1.65,0,0,0-.73-.44c-2-.31-3.94-1.12-6-.41a7.92,7.92,0,0,1-1.29.23,6.79,6.79,0,0,0-5.59,4.49,13.81,13.81,0,0,0-.79,3.59q-.3,4-.35,8.05c0,5.59,0,11.18,0,16.76a17,17,0,0,1,0,1.75,2.11,2.11,0,0,1-2.09,2.08c-1.67.07-3.34.06-5,0a2,2,0,0,1-1.94-2c-.06-.65,0-1.31,0-2q0-13,0-25.91a13.32,13.32,0,0,0-.58-4.73,8,8,0,0,1-.22-1.72,7,7,0,0,0-.31-1.91c-.83-1.89-.46-3.86-.52-5.8a1.24,1.24,0,0,1,.82-1.19,4.3,4.3,0,0,1,1.44-.4,28.26,28.26,0,0,1,3.05,0c1.92.06,2.42.46,3,2.25.25.83.43,1.68.65,2.52S1471.12,52.29,1471.43,53.43Z"/><path class="cls-1" d="M1243.09,71.79q0,8.05,0,16.1a19,19,0,0,1-.13,2.39,1.54,1.54,0,0,1-1.57,1.49c-1.67,0-3.34,0-5,0a1.82,1.82,0,0,1-1.83-1.55,12,12,0,0,1-.15-2.16V60.86a17.42,17.42,0,0,0-.06-2.17,4.24,4.24,0,0,0-1.55-3,1.93,1.93,0,0,0-.72-.45c-2-.28-3.94-1.12-6-.41A4.83,4.83,0,0,1,1225,55a7,7,0,0,0-6,4.87,23.22,23.22,0,0,0-1.44,7c-.14,2.53-.13,5.08-.14,7.62,0,4.64,0,9.28,0,13.92a14.39,14.39,0,0,1-.05,1.74,1.58,1.58,0,0,1-1.5,1.59,58.89,58.89,0,0,1-6.09-.06c-1.69-.13-2.25-.9-2.34-2.57,0-.58,0-1.16,0-1.74,0-7.62,0-15.24,0-22.86a54.4,54.4,0,0,0-1.67-14.43,9,9,0,0,1-.29-1.71c-.08-1.2.33-2,1.45-2.06a43.53,43.53,0,0,1,5-.07,1.23,1.23,0,0,1,.94.47c.78,1.27,2.15,2.2,2.27,3.86a2,2,0,0,0,.2.61.73.73,0,0,0,1,.23,3.9,3.9,0,0,0,.6-.62,13.16,13.16,0,0,1,8.72-5.25,26.51,26.51,0,0,1,10.16.05c5.26,1.08,6.67,4.4,7.18,8.13a31.56,31.56,0,0,1,.19,4.13C1243.1,62.5,1243.09,67.14,1243.09,71.79Z"/><path class="cls-1" d="M1782.48,55.09a3.5,3.5,0,0,1-1.27-3c0-.94,0-1.88,0-2.83a8.18,8.18,0,0,1,.23-1.71,1.57,1.57,0,0,1,1.67-1.4c.58,0,1.16,0,1.74,0h2.2a1.78,1.78,0,0,0,.61-1.75,33.57,33.57,0,0,1,.36-5.84c.2-1.24.67-1.86,1.94-2a34.66,34.66,0,0,1,4.78,0c1.35.09,1.9.76,1.94,2.14,0,1.67,0,3.34,0,5a3.58,3.58,0,0,0,.38,2.25c.54,0,1.17.13,1.8.14,1.89,0,3.77,0,5.66,0,1.6,0,2,.45,2.18,2.05.07.79,0,1.59.06,2.39.11,1.4-.79,2.44-1.31,3.6a1.65,1.65,0,0,1-1.64.86c-1.52-.05-3,0-4.56,0l-2,0a1.92,1.92,0,0,0-.57,1.75c0,2.54,0,5.08,0,7.62,0,4.78,0,9.57,0,14.36a26.74,26.74,0,0,0,.32,3.89,2.22,2.22,0,0,0,2.35,2.12,37.83,37.83,0,0,0,4.12-.16c.72,0,1.44-.16,2.16-.18a1.22,1.22,0,0,1,1.26,1,8.36,8.36,0,0,1,0,4.3,2.19,2.19,0,0,1-1.29,1.4,13.3,13.3,0,0,1-5.39,1.47c-1.6,0-3.19,0-4.79,0a7.09,7.09,0,0,1-6.29-3.54,6.31,6.31,0,0,1-.67-1.58,15,15,0,0,1-.73-2.92c-.13-1.52-.08-3-.08-4.57V55.42a7.12,7.12,0,0,0-1.32-.32C1785.06,55.06,1783.75,55.09,1782.48,55.09Z"/><path class="cls-1" d="M1034.57,51.73c.26-.37.57-.76.85-1.17,2.94-4.3,7.1-5.73,12.12-5.11a10.89,10.89,0,0,1,1.49.29,2.35,2.35,0,0,1,2.12,2.39,16.66,16.66,0,0,1-.15,5.41c-.22,1.09-.66,1.52-1.76,1.53-1.67,0-3.34,0-5,0a6.14,6.14,0,0,0-5.72,3.25,15.32,15.32,0,0,0-2.12,5.82c-1.19,7.51-.48,15.06-.69,22.59,0,1,0,2,0,3-.06,1.43-.6,2-2,2.06-1.59,0-3.19,0-4.79,0a4.64,4.64,0,0,1-1.63-.49,1.4,1.4,0,0,1-.85-1.19c-.07-.79-.13-1.59-.14-2.38,0-6.68,0-13.35,0-20,0-2.39-.09-4.79-.13-7.18a49.94,49.94,0,0,0-1.52-10.31,17,17,0,0,1-.33-2.36,1.31,1.31,0,0,1,.93-1.33,3.72,3.72,0,0,1,1.25-.32c1.23,0,2.47,0,3.7,0a2.16,2.16,0,0,1,2.15,1.53c.36,1,1.11,1.87,1.15,3C1033.51,51.23,1033.87,51.63,1034.57,51.73Z"/><path class="cls-1" d="M1396.63,69.05V88a12.6,12.6,0,0,1-.05,1.74,2.18,2.18,0,0,1-2.15,2.06c-1.66.06-3.33,0-5,0a2.23,2.23,0,0,1-2-1.93,11,11,0,0,1,0-1.52q0-18.39,0-36.78a17.17,17.17,0,0,1,.6-3.85,1.75,1.75,0,0,1,1.49-1.41,17.44,17.44,0,0,1,5.63,0,1.79,1.79,0,0,1,1.5,1.66,14.07,14.07,0,0,1,.07,1.95Q1396.65,59.47,1396.63,69.05Z"/><path class="cls-1" d="M1397.23,35.13c-.22,1.42-.36,2.87-.69,4.27a2.34,2.34,0,0,1-2.38,2.1c-1.66,0-3.33.07-5-.07-1.38-.11-1.92-.71-2-2.13,0-2,0-4,.17-6.08a2.08,2.08,0,0,1,1.89-2.07,16.8,16.8,0,0,1,6,0,2,2,0,0,1,1.72,2,18.31,18.31,0,0,1,0,2Z"/><path class="cls-1" d="M13.94,244.41a28.27,28.27,0,0,1,0-6c.58-.12,1.05-.26,1.54-.31s1,0,1.62,0c.63.69,1.28,1.38,1.81,1.95a3.58,3.58,0,0,1-1.18,4.22A3.34,3.34,0,0,1,13.94,244.41Z"/></g></g></svg>